<svg xmlns="http://www.w3.org/2000/svg" width="28" height="28" viewBox="0 0 28 28">
  <g id="car" transform="translate(-1045 -231)">
    <g id="Path_19868" data-name="Path 19868" transform="translate(1047 233)" fill="#e2e8f1">
      <path d="M 12.00000762939453 25.0000171661377 C 8.52757740020752 25.0000171661377 5.262987613677979 23.64777755737305 2.807617664337158 21.19239616394043 C 0.3522376418113708 18.73702621459961 -1.000002384185791 15.47243690490723 -1.000002384185791 12.00000667572021 C -1.000002384185791 8.527576446533203 0.3522376418113708 5.262986660003662 2.807617664337158 2.807616710662842 C 5.262987613677979 0.3522366881370544 8.52757740020752 -1.000003337860107 12.00000762939453 -1.000003337860107 C 15.47243785858154 -1.000003337860107 18.73702812194824 0.3522366881370544 21.19239807128906 2.807616710662842 C 23.64777755737305 5.262986660003662 25.0000171661377 8.527576446533203 25.0000171661377 12.00000667572021 C 25.0000171661377 15.47243690490723 23.64777755737305 18.73702621459961 21.19239807128906 21.19239616394043 C 18.73702812194824 23.64777755737305 15.47243785858154 25.0000171661377 12.00000762939453 25.0000171661377 Z" stroke="none"/>
      <path d="M 12.00000762939453 -3.814697265625e-06 C 5.372587203979492 -3.814697265625e-06 -1.9073486328125e-06 5.372587203979492 -1.9073486328125e-06 12.00000667572021 C -1.9073486328125e-06 18.62742614746094 5.372587203979492 24.0000171661377 12.00000762939453 24.0000171661377 C 18.62742805480957 24.0000171661377 24.0000171661377 18.62742614746094 24.0000171661377 12.00000667572021 C 24.0000171661377 5.372587203979492 18.62742805480957 -3.814697265625e-06 12.00000762939453 -3.814697265625e-06 M 12.00000762939453 -2.000003814697266 C 15.73954772949219 -2.000003814697266 19.25525665283203 -0.5437431335449219 21.89950752258301 2.100505828857422 C 24.54375839233398 4.744756698608398 26.0000171661377 8.260466575622559 26.0000171661377 12.00000667572021 C 26.0000171661377 15.73954677581787 24.54375839233398 19.25525665283203 21.89950752258301 21.89950561523438 C 19.25525665283203 24.54375648498535 15.73954772949219 26.0000171661377 12.00000762939453 26.0000171661377 C 8.260467529296875 26.0000171661377 4.744756698608398 24.54375648498535 2.100507736206055 21.89950561523438 C -0.5437431335449219 19.25525665283203 -2.000001907348633 15.73954677581787 -2.000001907348633 12.00000667572021 C -2.000001907348633 8.260466575622559 -0.5437431335449219 4.744756698608398 2.100507736206055 2.100505828857422 C 4.744756698608398 -0.5437431335449219 8.260467529296875 -2.000003814697266 12.00000762939453 -2.000003814697266 Z" stroke="none" fill="#fff"/>
    </g>
    <path id="Icon_awesome-car" data-name="Icon awesome-car" d="M13.672,7.563H12.035L11.58,6.425A3.047,3.047,0,0,0,8.736,4.5H5.264A3.048,3.048,0,0,0,2.42,6.425L1.965,7.563H.329A.328.328,0,0,0,.01,7.97l.164.656a.328.328,0,0,0,.318.249h.549a1.738,1.738,0,0,0-.6,1.313V11.5a1.736,1.736,0,0,0,.438,1.147v1.478A.875.875,0,0,0,1.75,15h.875a.875.875,0,0,0,.875-.875V13.25h7v.875a.875.875,0,0,0,.875.875h.875a.875.875,0,0,0,.875-.875V12.647a1.735,1.735,0,0,0,.438-1.147V10.188a1.738,1.738,0,0,0-.6-1.313h.549a.328.328,0,0,0,.318-.249l.164-.656a.328.328,0,0,0-.319-.408ZM4.045,7.075A1.313,1.313,0,0,1,5.264,6.25H8.736a1.313,1.313,0,0,1,1.219.825L10.5,8.438h-7l.545-1.363Zm-1.42,4.42a.872.872,0,1,1,0-1.745,1.683,1.683,0,0,1,1.313,1.308C3.938,11.582,3.15,11.495,2.625,11.495Zm8.75,0c-.525,0-1.313.087-1.313-.436A1.683,1.683,0,0,1,11.375,9.75a.872.872,0,1,1,0,1.745Z" transform="translate(1052.086 235.538)" fill="#4b73a7"/>
  </g>
</svg>
