<svg xmlns="http://www.w3.org/2000/svg" width="28" height="28" viewBox="0 0 28 28">
  <g id="location" transform="translate(-634 440)">
    <g id="Path_19868" data-name="Path 19868" transform="translate(636 -438)" fill="#e2e8f1">
      <path d="M 12.00000762939453 25.0000171661377 C 8.52757740020752 25.0000171661377 5.262987613677979 23.64777755737305 2.807617664337158 21.19239616394043 C 0.3522376418113708 18.73702621459961 -1.000002384185791 15.47243690490723 -1.000002384185791 12.00000667572021 C -1.000002384185791 8.527576446533203 0.3522376418113708 5.262986660003662 2.807617664337158 2.807616710662842 C 5.262987613677979 0.3522366881370544 8.52757740020752 -1.000003337860107 12.00000762939453 -1.000003337860107 C 15.47243785858154 -1.000003337860107 18.73702812194824 0.3522366881370544 21.19239807128906 2.807616710662842 C 23.64777755737305 5.262986660003662 25.0000171661377 8.527576446533203 25.0000171661377 12.00000667572021 C 25.0000171661377 15.47243690490723 23.64777755737305 18.73702621459961 21.19239807128906 21.19239616394043 C 18.73702812194824 23.64777755737305 15.47243785858154 25.0000171661377 12.00000762939453 25.0000171661377 Z" stroke="none"/>
      <path d="M 12.00000762939453 -3.814697265625e-06 C 5.372587203979492 -3.814697265625e-06 -1.9073486328125e-06 5.372587203979492 -1.9073486328125e-06 12.00000667572021 C -1.9073486328125e-06 18.62742614746094 5.372587203979492 24.0000171661377 12.00000762939453 24.0000171661377 C 18.62742805480957 24.0000171661377 24.0000171661377 18.62742614746094 24.0000171661377 12.00000667572021 C 24.0000171661377 5.372587203979492 18.62742805480957 -3.814697265625e-06 12.00000762939453 -3.814697265625e-06 M 12.00000762939453 -2.000003814697266 C 15.73954772949219 -2.000003814697266 19.25525665283203 -0.5437431335449219 21.89950752258301 2.100505828857422 C 24.54375839233398 4.744756698608398 26.0000171661377 8.260466575622559 26.0000171661377 12.00000667572021 C 26.0000171661377 15.73954677581787 24.54375839233398 19.25525665283203 21.89950752258301 21.89950561523438 C 19.25525665283203 24.54375648498535 15.73954772949219 26.0000171661377 12.00000762939453 26.0000171661377 C 8.260467529296875 26.0000171661377 4.744756698608398 24.54375648498535 2.100507736206055 21.89950561523438 C -0.5437431335449219 19.25525665283203 -2.000001907348633 15.73954677581787 -2.000001907348633 12.00000667572021 C -2.000001907348633 8.260466575622559 -0.5437431335449219 4.744756698608398 2.100507736206055 2.100505828857422 C 4.744756698608398 -0.5437431335449219 8.260467529296875 -2.000003814697266 12.00000762939453 -2.000003814697266 Z" stroke="none" fill="#fff"/>
    </g>
    <path id="Icon_awesome-map-marker-alt" data-name="Icon awesome-map-marker-alt" d="M4.71,13.718C.737,7.958,0,7.367,0,5.25a5.25,5.25,0,1,1,10.5,0c0,2.117-.737,2.708-4.71,8.468a.657.657,0,0,1-1.079,0Zm.54-6.28A2.188,2.188,0,1,0,3.062,5.25,2.187,2.187,0,0,0,5.25,7.437Z" transform="translate(643 -433)" fill="#4b73a7"/>
  </g>
</svg>
