<svg xmlns="http://www.w3.org/2000/svg" width="28.286" height="28" viewBox="0 0 28.286 28">
  <g id="train" transform="translate(-1013 -231)">
    <g id="Ellipse_55" data-name="Ellipse 55" transform="translate(1015 233)" fill="#e1e8f0" stroke="#fff" stroke-width="2">
      <ellipse cx="12.143" cy="12" rx="12.143" ry="12" stroke="none"/>
      <ellipse cx="12.143" cy="12" rx="13.143" ry="13" fill="none"/>
    </g>
    <path id="Icon_metro-train" data-name="Icon metro-train" d="M12.056,2.2a3.562,3.562,0,0,1,2.119.626,1.826,1.826,0,0,1,.881,1.517v6a1.8,1.8,0,0,1-.84,1.487,3.538,3.538,0,0,1-2.046.65L13.6,13.835a.2.2,0,0,1,.054.234.2.2,0,0,1-.2.134H6.377a.2.2,0,0,1-.2-.134.2.2,0,0,1,.054-.234l1.426-1.353a3.538,3.538,0,0,1-2.046-.65,1.8,1.8,0,0,1-.84-1.487v-6A1.826,1.826,0,0,1,5.65,2.83,3.562,3.562,0,0,1,7.77,2.2h4.286Zm-2.143,9A1.28,1.28,0,1,0,9,10.828,1.24,1.24,0,0,0,9.913,11.2ZM13.77,7.346V3.918H6.056V7.346Z" transform="translate(1017.198 236.797)" fill="#4b73a7"/>
  </g>
</svg>
